# xmcd
#
# Track frame offsets:
#	150
#	12069
#	25334
#	37587
#	49892
#	60852
#	73324
#	84779
#	95984
#	107253
#	119474
#	130939
#	142771
#	155076
#	176530
#	187744
#	200346
#	217567
#
# Disc length: 3116 seconds
#
# Revision: 1
# Processed by: cddbd v1.5.2PL0 Copyright (c) Steve Scherf et al.
# Submitted via: EasyCDDAExtractor 2010.4.0.0
#
DISCID=de0c2a12
DTITLE=Various Artist - Classic Country Killer B Sides
DYEAR=1900
DGENRE=Country
TTITLE0=Bob Wills - Roly-Poly
TTITLE1=Ernest Tubb - Drivin' Nails In My Coffin
TTITLE2=Eddy Arnold - Texarkana Baby
TTITLE3=Hank Williams - Lost Highway
TTITLE4=Red Foley w Hank Garland - Sugarfoot Rag
TTITLE5=Lefty Fizzell - I Love You A Thousand Ways
TTITLE6=Hank Snow - (Now And Then There's)A Fool Such As I
TTITLE7=Webb Pierce - I'm Walking The Dog
TTITLE8=Elvis Presley - Mystery Train
TTITLE9=The Louvin Brothers - Cash On The Barrel Head
TTITLE10=Johnny Cash - Big River
TTITLE11=Don Gibson - I Can't Stop Lovin' You
TTITLE12=George Jones - Sometimes You Just Can't Win
TTITLE13=Ray Price - Night Life
TTITLE14=Buck Owens - Together Again
TTITLE15=Merle Haggard - Silver Wings
TTITLE16=Willie Nelson - Me And Paul
TTITLE17=Waylon Jennings - Bob Wills Is Still The King
EXTD=
EXTT0=
EXTT1=
EXTT2=
EXTT3=
EXTT4=
EXTT5=
EXTT6=
EXTT7=
EXTT8=
EXTT9=
EXTT10=
EXTT11=
EXTT12=
EXTT13=
EXTT14=
EXTT15=
EXTT16=
EXTT17=
PLAYORDER=
